<svg width="75" height="112" viewBox="0 0 75 112" fill="none" xmlns="http://www.w3.org/2000/svg">
<path fill-rule="evenodd" clip-rule="evenodd" d="M0 17.2355H75V32.1183L41.625 65.4933L75 98.8683V111.255H58.9843L29.5373 81.8076L0.0902329 111.255H0V17.2355Z" fill="#00AB3B"/>
<path d="M34.4032 55.3317C33.9716 55.4818 33.5296 55.6005 33.0808 55.687C30.882 56.0642 28.6208 55.6427 26.7056 54.4985C24.7904 53.3544 23.3474 51.5631 22.6374 49.4481L15.5978 29.2219C14.5122 26.1767 14.5868 22.8382 15.8073 19.8444C17.0277 16.8506 19.3086 14.4115 22.2138 12.9933C24.8334 11.7736 27.7891 11.478 30.5983 12.1548L47.4207 15.9811C49.6486 16.4975 51.6977 17.6008 53.3552 19.1765C55.0127 20.7522 56.2182 22.7429 56.8467 24.9418C57.4752 27.1407 57.5036 29.4677 56.9291 31.6814C56.3546 33.895 55.1981 35.9145 53.5796 37.5303L37.8729 53.1601C36.8955 54.1371 35.7092 54.8796 34.4032 55.3317ZM24.5997 15.984C24.3131 16.0838 24.029 16.1982 23.7474 16.3273C21.6668 17.359 20.0392 19.1209 19.1753 21.2765C18.3115 23.4322 18.2721 25.8305 19.0645 28.0135L26.1052 48.2431C26.5224 49.5265 27.3843 50.6187 28.5356 51.3227C29.6869 52.0268 31.0518 52.2964 32.3843 52.083C33.4808 51.8775 34.4901 51.3468 35.2808 50.5598L50.9922 34.9265C52.1457 33.7731 52.9696 32.3321 53.3784 30.7529C53.7871 29.1737 53.7659 27.5139 53.3169 25.9457C52.8679 24.3775 52.0074 22.9581 50.8248 21.8346C49.6421 20.7111 48.1804 19.9245 46.5913 19.5564L29.7648 15.7296C28.0546 15.3144 26.2608 15.4027 24.5997 15.984ZM51.204 8.66825L44.2695 11.0817C42.4303 11.7193 40.4132 11.6014 38.6608 10.7539C36.9084 9.90633 35.5637 8.39839 34.9215 6.56075L34.3181 4.82712L37.7854 3.62038L38.3888 5.354C38.7096 6.27297 39.382 7.0271 40.2583 7.4509C41.1345 7.8747 42.1431 7.93353 43.0628 7.6145L49.9972 5.20101L51.204 8.66825Z" fill="#E43535"/>
<path d="M24.5997 15.984C24.3131 16.0838 24.029 16.1982 23.7474 16.3273C21.6668 17.359 20.0392 19.1209 19.1753 21.2765C18.3115 23.4322 18.2721 25.8305 19.0645 28.0135L26.1052 48.2431C26.5224 49.5265 27.3843 50.6187 28.5356 51.3227C29.6869 52.0268 31.0518 52.2964 32.3843 52.083C33.4808 51.8775 34.4901 51.3468 35.2808 50.5598L50.9922 34.9265C52.1457 33.7731 52.9696 32.3321 53.3784 30.7529C53.7871 29.1737 53.7659 27.5139 53.3169 25.9457C52.8679 24.3775 52.0074 22.9581 50.8248 21.8346C49.6421 20.7111 48.1804 19.9245 46.5913 19.5564L29.7648 15.7296C28.0546 15.3144 26.2608 15.4027 24.5997 15.984Z" fill="white"/>
<path d="M28.3008 111.04H24.8164L22.5586 106.673L21.6445 107.22V111.04H18.543V99.6183H21.6445V104.579C21.7747 104.329 21.9232 104.079 22.0898 103.829C22.2617 103.579 22.4284 103.342 22.5898 103.118L24.9883 99.6183H28.3633L24.7617 104.735L28.3008 111.04ZM34.1289 104.353H39.0586V110.509C38.4701 110.712 37.7956 110.879 37.0352 111.009C36.2747 111.134 35.4779 111.196 34.6445 111.196C33.5456 111.196 32.582 110.983 31.7539 110.556C30.9258 110.129 30.2799 109.48 29.8164 108.61C29.3529 107.735 29.1211 106.631 29.1211 105.298C29.1211 104.1 29.3503 103.066 29.8086 102.196C30.2669 101.321 30.9414 100.647 31.832 100.173C32.7279 99.6938 33.8242 99.4542 35.1211 99.4542C35.8346 99.4542 36.5117 99.5219 37.1523 99.6573C37.793 99.7928 38.3503 99.9646 38.8242 100.173L37.8477 102.595C37.4362 102.392 37.0091 102.241 36.5664 102.142C36.1237 102.038 35.6471 101.985 35.1367 101.985C34.4544 101.985 33.9049 102.139 33.4883 102.446C33.0768 102.754 32.7773 103.165 32.5898 103.681C32.4023 104.191 32.3086 104.756 32.3086 105.376C32.3086 106.084 32.4076 106.683 32.6055 107.173C32.8086 107.657 33.1029 108.027 33.4883 108.282C33.8789 108.532 34.3503 108.657 34.9023 108.657C35.0846 108.657 35.306 108.644 35.5664 108.618C35.832 108.592 36.0326 108.561 36.168 108.525V106.735H34.1289V104.353Z" fill="#0B162B"/>
<path d="M39.356 26.7385C42.1832 25.4902 42.7396 25.5886 44.9093 27.8838" stroke="#0B162B" stroke-width="2" stroke-linecap="round"/>
<path d="M26.5627 35.5113C30.6516 40.9761 32.9053 41.5734 39.2288 38.1235" stroke="#0B162B" stroke-width="2" stroke-linecap="round"/>
<circle cx="29.0948" cy="24.5711" r="2.30769" transform="rotate(11.6528 29.0948 24.5711)" fill="#0B162B"/>
</svg>
