<svg width="208" height="261" viewBox="0 0 208 261" fill="none" xmlns="http://www.w3.org/2000/svg">
<path d="M20.5 251H16.1406L6.75 239.406V251H3V228.156H6.75V239.219L15.9688 228.156H20.0625L10.8438 239.188L20.5 251ZM37.3906 251H33.6875V236.578H28.8906C28.6823 239.203 28.4219 241.448 28.1094 243.312C27.7969 245.177 27.4062 246.698 26.9375 247.875C26.4688 249.042 25.8906 249.896 25.2031 250.438C24.5156 250.979 23.6875 251.25 22.7188 251.25C22.2917 251.25 21.9062 251.219 21.5625 251.156C21.2188 251.104 20.9115 251.021 20.6406 250.906V248.016C20.8177 248.078 21.0104 248.13 21.2188 248.172C21.4271 248.214 21.6406 248.234 21.8594 248.234C22.2448 248.234 22.599 248.078 22.9219 247.766C23.2552 247.443 23.5625 246.938 23.8438 246.25C24.125 245.562 24.3802 244.656 24.6094 243.531C24.8385 242.396 25.0469 241.021 25.2344 239.406C25.4219 237.781 25.5885 235.88 25.7344 233.703H37.3906V251ZM40.0469 233.703H44.0469L47.5938 243.578C47.75 244.026 47.8906 244.469 48.0156 244.906C48.151 245.333 48.2656 245.755 48.3594 246.172C48.4635 246.589 48.5469 247.005 48.6094 247.422H48.7031C48.8073 246.88 48.9531 246.276 49.1406 245.609C49.3385 244.932 49.5573 244.255 49.7969 243.578L53.2031 233.703H57.1562L49.7344 253.375C49.3073 254.5 48.7812 255.458 48.1562 256.25C47.5417 257.052 46.8125 257.656 45.9688 258.062C45.125 258.479 44.1615 258.688 43.0781 258.688C42.5573 258.688 42.1042 258.656 41.7188 258.594C41.3333 258.542 41.0052 258.484 40.7344 258.422V255.484C40.9531 255.536 41.2292 255.583 41.5625 255.625C41.8958 255.667 42.2396 255.688 42.5938 255.688C43.25 255.688 43.8177 255.557 44.2969 255.297C44.776 255.036 45.1823 254.667 45.5156 254.188C45.849 253.719 46.125 253.182 46.3438 252.578L46.9531 250.953L40.0469 233.703ZM58.7969 240.625C58.7969 238.115 59.0729 235.979 59.625 234.219C60.1771 232.458 61.0469 231.047 62.2344 229.984C63.4219 228.922 64.9635 228.198 66.8594 227.812C68.0885 227.531 69.3385 227.292 70.6094 227.094C71.8802 226.896 73.151 226.703 74.4219 226.516L74.9219 229.75C74.3281 229.823 73.6927 229.911 73.0156 230.016C72.3385 230.109 71.6562 230.208 70.9688 230.312C70.2917 230.417 69.6406 230.526 69.0156 230.641C68.401 230.745 67.849 230.849 67.3594 230.953C66.3802 231.161 65.5521 231.505 64.875 231.984C64.2083 232.453 63.6875 233.141 63.3125 234.047C62.9375 234.953 62.7135 236.161 62.6406 237.672H62.8438C63.125 237.245 63.5156 236.818 64.0156 236.391C64.5156 235.964 65.1198 235.609 65.8281 235.328C66.5469 235.036 67.3646 234.891 68.2812 234.891C69.7188 234.891 70.9375 235.193 71.9375 235.797C72.9479 236.401 73.7135 237.276 74.2344 238.422C74.7656 239.568 75.0312 240.948 75.0312 242.562C75.0312 244.49 74.6875 246.104 74 247.406C73.3229 248.698 72.375 249.672 71.1562 250.328C69.9375 250.984 68.5156 251.312 66.8906 251.312C65.6406 251.312 64.5156 251.078 63.5156 250.609C62.526 250.141 61.6771 249.453 60.9688 248.547C60.2708 247.63 59.7344 246.51 59.3594 245.188C58.9844 243.854 58.7969 242.333 58.7969 240.625ZM67.1406 248.297C67.974 248.297 68.6927 248.12 69.2969 247.766C69.9115 247.411 70.3854 246.839 70.7188 246.047C71.0625 245.255 71.2344 244.208 71.2344 242.906C71.2344 241.302 70.9427 240.042 70.3594 239.125C69.7865 238.198 68.8385 237.734 67.5156 237.734C66.7031 237.734 65.9583 237.917 65.2812 238.281C64.6042 238.646 64.0312 239.073 63.5625 239.562C63.0938 240.042 62.7604 240.464 62.5625 240.828C62.5625 241.776 62.6302 242.693 62.7656 243.578C62.9115 244.464 63.151 245.266 63.4844 245.984C63.8281 246.693 64.2969 247.255 64.8906 247.672C65.4844 248.089 66.2344 248.297 67.1406 248.297ZM82.9375 233.703V240.656H91.0312V233.703H94.7188V251H91.0312V243.531H82.9375V251H79.25V233.703H82.9375ZM103.5 233.703V242.531C103.5 242.812 103.49 243.172 103.469 243.609C103.458 244.036 103.438 244.484 103.406 244.953C103.375 245.411 103.344 245.833 103.312 246.219C103.281 246.604 103.255 246.891 103.234 247.078L111.938 233.703H116.406V251H112.891V242.266C112.891 241.807 112.901 241.276 112.922 240.672C112.953 240.068 112.984 239.484 113.016 238.922C113.057 238.359 113.083 237.932 113.094 237.641L104.422 251H99.9688V233.703H103.5ZM132.406 233.703H136.453L129.297 242.016L137.062 251H132.828L125.375 242.219V251H121.688V233.703H125.375V242.094L132.406 233.703ZM146.656 233.375C148.844 233.375 150.495 233.859 151.609 234.828C152.734 235.797 153.297 237.307 153.297 239.359V251H150.688L149.984 248.547H149.859C149.37 249.172 148.865 249.688 148.344 250.094C147.823 250.5 147.219 250.802 146.531 251C145.854 251.208 145.026 251.312 144.047 251.312C143.016 251.312 142.094 251.125 141.281 250.75C140.469 250.365 139.828 249.781 139.359 249C138.891 248.219 138.656 247.229 138.656 246.031C138.656 244.25 139.318 242.911 140.641 242.016C141.974 241.12 143.984 240.625 146.672 240.531L149.672 240.422V239.516C149.672 238.318 149.391 237.464 148.828 236.953C148.276 236.443 147.495 236.188 146.484 236.188C145.62 236.188 144.781 236.312 143.969 236.562C143.156 236.812 142.365 237.12 141.594 237.484L140.406 234.891C141.25 234.443 142.208 234.078 143.281 233.797C144.365 233.516 145.49 233.375 146.656 233.375ZM149.656 242.734L147.422 242.812C145.589 242.875 144.302 243.188 143.562 243.75C142.823 244.312 142.453 245.083 142.453 246.062C142.453 246.917 142.708 247.542 143.219 247.938C143.729 248.323 144.401 248.516 145.234 248.516C146.505 248.516 147.557 248.156 148.391 247.438C149.234 246.708 149.656 245.641 149.656 244.234V242.734ZM184.547 251H180.234L173.125 240.625L170.875 242.453V251H167.125V228.156H170.875V239.078C171.333 238.516 171.797 237.953 172.266 237.391C172.734 236.828 173.203 236.266 173.672 235.703L180.109 228.156H184.344L175.812 238.156L184.547 251ZM196.781 238.594H205.312V250.062C204.115 250.458 202.875 250.766 201.594 250.984C200.312 251.203 198.875 251.312 197.281 251.312C194.958 251.312 192.99 250.854 191.375 249.938C189.771 249.01 188.552 247.672 187.719 245.922C186.885 244.161 186.469 242.042 186.469 239.562C186.469 237.177 186.932 235.109 187.859 233.359C188.786 231.599 190.135 230.24 191.906 229.281C193.677 228.312 195.823 227.828 198.344 227.828C199.583 227.828 200.781 227.953 201.938 228.203C203.104 228.443 204.172 228.776 205.141 229.203L203.828 232.297C203.057 231.932 202.193 231.625 201.234 231.375C200.276 231.125 199.281 231 198.25 231C196.615 231 195.203 231.354 194.016 232.062C192.839 232.771 191.932 233.771 191.297 235.062C190.661 236.344 190.344 237.859 190.344 239.609C190.344 241.307 190.599 242.797 191.109 244.078C191.62 245.359 192.417 246.359 193.5 247.078C194.594 247.786 196.005 248.141 197.734 248.141C198.599 248.141 199.333 248.094 199.938 248C200.542 247.906 201.099 247.802 201.609 247.688V241.797H196.781V238.594Z" fill="#0B162B"/>
<path fill-rule="evenodd" clip-rule="evenodd" d="M39 29.8763H169V55.6714L111.153 113.518L169 171.365V192.843H141.235L90.198 141.806L39.1607 192.843H39V29.8763Z" fill="#00AB3B"/>
<path d="M98.6314 95.9083C97.8832 96.1686 97.1171 96.3744 96.3392 96.5242C92.5279 97.178 88.6085 96.4474 85.2888 94.4642C81.9691 92.481 79.468 89.3761 78.2373 85.7102L66.0354 50.6515C64.1536 45.373 64.2829 39.5862 66.3984 34.397C68.5139 29.2078 72.4673 24.9801 77.5031 22.5217C82.0437 20.4077 87.1669 19.8954 92.0362 21.0684L121.195 27.7006C125.057 28.5958 128.608 30.5082 131.481 33.2394C134.354 35.9706 136.444 39.4211 137.533 43.2325C138.623 47.0439 138.672 51.0775 137.676 54.9144C136.68 58.7514 134.676 62.2519 131.87 65.0525L104.645 92.1442C102.951 93.8377 100.895 95.1247 98.6314 95.9083ZM81.6387 27.7057C81.1418 27.8786 80.6494 28.077 80.1613 28.3008C76.5549 30.0889 73.7337 33.1429 72.2364 36.8794C70.7391 40.6159 70.6707 44.773 72.0442 48.5568L84.2482 83.6215C84.9713 85.846 86.4653 87.7391 88.4608 88.9595C90.4564 90.1798 92.8222 90.6471 95.1319 90.2772C97.0325 89.9211 98.7819 89.0012 100.152 87.6371L127.386 60.5393C129.385 58.5401 130.813 56.0423 131.522 53.3051C132.23 50.5679 132.193 47.6909 131.415 44.9727C130.637 42.2545 129.145 39.794 127.095 37.8466C125.045 35.8992 122.512 34.5358 119.757 33.8979L90.5914 27.2647C87.6271 26.545 84.5179 26.6981 81.6387 27.7057ZM127.753 15.0251L115.733 19.2084C112.545 20.3135 109.049 20.1092 106.011 18.6401C102.974 17.1711 100.643 14.5573 99.5297 11.372L98.4839 8.3671L104.494 6.2754L105.54 9.28035C106.096 10.8732 107.261 12.1804 108.78 12.915C110.299 13.6496 112.047 13.7515 113.641 13.1985L125.661 9.01516L127.753 15.0251Z" fill="#E43535"/>
<path d="M81.6387 27.7057C81.1418 27.8786 80.6494 28.077 80.1613 28.3008C76.5549 30.0889 73.7337 33.1429 72.2364 36.8794C70.7391 40.6159 70.6707 44.773 72.0442 48.5568L84.2482 83.6215C84.9713 85.846 86.4653 87.7391 88.4608 88.9595C90.4564 90.1798 92.8222 90.6471 95.1319 90.2772C97.0325 89.9211 98.7819 89.0012 100.152 87.6371L127.386 60.5393C129.385 58.5401 130.813 56.0423 131.522 53.3051C132.23 50.5679 132.193 47.6909 131.415 44.9727C130.637 42.2545 129.145 39.794 127.095 37.8466C125.045 35.8992 122.512 34.5358 119.757 33.8979L90.5914 27.2647C87.6271 26.545 84.5179 26.6981 81.6387 27.7057Z" fill="white"/>
<path d="M88.2363 193H82.1387L78.1875 185.357L76.5879 186.314V193H71.1602V173.012H76.5879V181.693C76.8158 181.256 77.0755 180.818 77.3672 180.381C77.668 179.943 77.9596 179.529 78.2422 179.137L82.4395 173.012H88.3457L82.043 181.967L88.2363 193ZM98.4355 181.297H107.062V192.07C106.033 192.426 104.852 192.717 103.521 192.945C102.191 193.164 100.796 193.273 99.3379 193.273C97.4147 193.273 95.7285 192.9 94.2793 192.152C92.8301 191.405 91.6999 190.27 90.8887 188.748C90.0775 187.217 89.6719 185.285 89.6719 182.951C89.6719 180.855 90.0729 179.046 90.875 177.523C91.6771 175.992 92.8574 174.812 94.416 173.982C95.9837 173.144 97.9023 172.725 100.172 172.725C101.421 172.725 102.605 172.843 103.727 173.08C104.848 173.317 105.823 173.618 106.652 173.982L104.943 178.221C104.223 177.865 103.476 177.601 102.701 177.428C101.926 177.245 101.092 177.154 100.199 177.154C99.0052 177.154 98.0436 177.423 97.3145 177.961C96.5944 178.499 96.0703 179.219 95.7422 180.121C95.4141 181.014 95.25 182.003 95.25 183.088C95.25 184.327 95.4232 185.376 95.7695 186.232C96.125 187.08 96.64 187.727 97.3145 188.174C97.998 188.611 98.8229 188.83 99.7891 188.83C100.108 188.83 100.495 188.807 100.951 188.762C101.416 188.716 101.767 188.661 102.004 188.598V185.467H98.4355V181.297Z" fill="#0B162B"/>
<path d="M107.211 46.3412C112.112 44.1775 113.076 44.3481 116.837 48.3263" stroke="#0B162B" stroke-width="3" stroke-linecap="round"/>
<path d="M85.037 61.5521C92.1244 71.0244 96.0308 72.0598 106.992 66.0798" stroke="#0B162B" stroke-width="3" stroke-linecap="round"/>
<circle cx="89.4254" cy="42.5885" r="4" transform="rotate(11.6528 89.4254 42.5885)" fill="#0B162B"/>
</svg>
