<svg width="49" height="49" viewBox="0 0 49 49" fill="none" xmlns="http://www.w3.org/2000/svg">
<rect x="1" y="1" width="47" height="47" rx="7" fill="white" stroke="#00AB3B" stroke-width="2"/>
<g clip-path="url(#clip0_102_380)">
<path d="M33.8694 16.6957H16.1304C15.8338 16.6957 15.563 16.528 15.4303 16.2631L14.2426 13.8877C14.039 13.4801 14.0604 13.0058 14.2997 12.6186C14.5391 12.2313 14.9539 12 15.4094 12H34.5905C35.046 12 35.4608 12.2313 35.7002 12.6185C35.9394 13.0057 35.9608 13.4801 35.7573 13.8877L34.5696 16.263C34.4368 16.528 34.166 16.6957 33.8694 16.6957Z" fill="#FFB655"/>
<path d="M34.5903 36H15.4094C14.9539 36 14.5391 35.7687 14.2996 35.3815C14.0604 34.9943 14.039 34.5199 14.2425 34.1123L15.4302 31.737C15.563 31.472 15.8337 31.0434 16.1303 31.0434L33.8694 31.3043C34.166 31.3043 34.4368 31.4719 34.5695 31.7369L35.7572 34.1122C35.9607 34.5198 35.9393 34.9942 35.7001 35.3814C35.4606 35.7687 35.0459 36 34.5903 36Z" fill="#FFB655"/>
<path d="M34.5697 31.7369C34.437 31.472 34.1662 31.3044 33.8697 31.3044H25.0132V36H34.5906C35.0461 36 35.4609 35.7687 35.7004 35.3815C35.9396 34.9943 35.961 34.5199 35.7574 34.1123L34.5697 31.7369Z" fill="#FFA733"/>
<path d="M34.5906 12H25.0132V16.6957H33.8697C34.1662 16.6957 34.437 16.528 34.5697 16.2631L35.7574 13.8877C35.9609 13.4801 35.9396 13.0058 35.7003 12.6186C35.4609 12.2313 35.0461 12 34.5906 12Z" fill="#FFA733"/>
<path d="M34.7095 15.913H15.2904C13.2974 20.9061 13.2974 27.0938 15.2904 32.0869H34.7095C36.7025 27.0938 36.7025 20.9061 34.7095 15.913Z" fill="#FFDAAA"/>
<path d="M34.7097 32.087H25.0132V15.913H34.7097C36.7027 20.9062 36.7027 27.0938 34.7097 32.087Z" fill="#FFC477"/>
<path d="M24.8002 27.2029C24.6153 27.1543 24.4615 27.0422 24.3585 26.8947C24.2554 26.7472 24.203 26.5642 24.2207 26.374C24.5202 23.1542 27.3043 21.208 30.4186 22.0381C30.6027 22.087 30.7557 22.1986 30.8585 22.3454C30.9613 22.4922 31.0138 22.6742 30.9969 22.864C30.7059 26.1182 27.892 28.018 24.8002 27.2029Z" fill="#91DC5A"/>
<path d="M24.8003 27.2029C27.8853 28.0162 30.7054 26.1247 30.997 22.8639C31.014 22.6741 30.9615 22.4921 30.8586 22.3453L24.3586 26.8946C24.4617 27.0421 24.6155 27.1542 24.8003 27.2029Z" fill="#6DC82A"/>
<path d="M18.4814 21.2937C18.4644 21.1039 18.517 20.9219 18.6198 20.775C18.7227 20.6282 18.8757 20.5167 19.0597 20.4677C22.174 19.6376 24.9581 21.5839 25.2577 24.8036C25.2753 24.9939 25.223 25.1768 25.1199 25.3243C25.0168 25.4718 24.8631 25.5839 24.6781 25.6326C21.5864 26.4477 18.7725 24.548 18.4814 21.2937Z" fill="#91DC5A"/>
<path d="M25.0131 30C24.5808 30 24.2305 29.6494 24.2305 29.2174V19.0435C24.2305 18.6114 24.5808 18.2609 25.0131 18.2609C25.4454 18.2609 25.7957 18.6114 25.7957 19.0435V29.2174C25.7957 29.6494 25.4454 30 25.0131 30Z" fill="#6DC82A"/>
<path d="M24.6781 25.6327C21.5932 26.4459 18.7731 24.5545 18.4814 21.2937C18.4644 21.1039 18.517 20.9219 18.6198 20.775L25.1199 25.3244C25.0167 25.4719 24.863 25.584 24.6781 25.6327Z" fill="#6DC82A"/>
</g>
<defs>
<clipPath id="clip0_102_380">
<rect width="24" height="24" fill="white" transform="translate(13 12)"/>
</clipPath>
</defs>
</svg>
