<svg width="50" height="49" viewBox="0 0 50 49" fill="none" xmlns="http://www.w3.org/2000/svg">
<rect x="1.66675" y="1" width="47" height="47" rx="7" fill="white" stroke="#72BEFC" stroke-width="2"/>
<path d="M26.0942 14.8181C26.0414 14.7564 25.9759 14.7069 25.9022 14.673C25.8284 14.6391 25.7482 14.6215 25.667 14.6215C25.5858 14.6215 25.5056 14.6391 25.4318 14.673C25.3581 14.7069 25.2925 14.7564 25.2397 14.8181C23.7557 16.5539 18.9167 22.5548 18.9167 27C18.9167 31.1423 21.5249 33.75 25.6667 33.75C29.8086 33.75 32.4167 31.1423 32.4167 27C32.4167 22.5548 27.5778 16.5539 26.0942 14.8181ZM26.4167 31.3125C26.3267 31.3127 26.2378 31.2912 26.1578 31.25C26.0777 31.2087 26.0087 31.1488 25.9566 31.0753C25.9045 31.0018 25.8708 30.9168 25.8584 30.8276C25.846 30.7383 25.8552 30.6474 25.8852 30.5625C25.9235 30.4517 25.9959 30.3558 26.0919 30.2884C26.1879 30.2211 26.3028 30.1858 26.42 30.1875C27.1646 30.1859 27.8782 29.8894 28.4047 29.3629C28.9312 28.8364 29.2276 28.1228 29.2292 27.3783C29.2275 27.261 29.2629 27.1462 29.3302 27.0502C29.3975 26.9541 29.4934 26.8818 29.6042 26.8434C29.6892 26.8134 29.7801 26.8042 29.8693 26.8166C29.9586 26.8291 30.0435 26.8627 30.117 26.9148C30.1905 26.9669 30.2504 27.0359 30.2917 27.116C30.333 27.1961 30.3544 27.2849 30.3542 27.375C30.3531 28.4189 29.9379 29.4198 29.1997 30.158C28.4616 30.8962 27.4607 31.3114 26.4167 31.3125Z" fill="#72BEFC"/>
</svg>
