<svg width="50" height="49" viewBox="0 0 50 49" fill="none" xmlns="http://www.w3.org/2000/svg">
<rect x="1.33325" y="1" width="47" height="47" rx="7" fill="white" stroke="#7C98DC" stroke-width="2"/>
<g clip-path="url(#clip0_102_376)">
<path d="M26.1904 23.5714C26.4225 23.5714 26.6234 23.6562 26.793 23.8259C26.9627 23.9955 27.0475 24.1964 27.0475 24.4286C27.0475 24.6607 26.9627 24.8616 26.793 25.0312C26.6234 25.2009 26.4225 25.2857 26.1904 25.2857C25.9582 25.2857 25.7573 25.2009 25.5877 25.0312C25.418 24.8616 25.3332 24.6607 25.3332 24.4286C25.3332 24.1964 25.418 23.9955 25.5877 23.8259C25.7573 23.6562 25.9582 23.5714 26.1904 23.5714ZM30.2082 24.4286L36.9984 29.7589C37.2484 29.9375 37.36 30.1875 37.3332 30.5089C37.2886 30.8214 37.1323 31.0491 36.8645 31.192L35.1502 32.0491C35.0341 32.1116 34.9046 32.1429 34.7618 32.1429C34.61 32.1429 34.4716 32.1071 34.3466 32.0357L25.1055 26.8527L23.6323 27.7366C23.5609 27.7723 23.5073 27.7946 23.4716 27.8036C23.5966 28.2411 23.6413 28.6741 23.6055 29.1027C23.543 29.7902 23.293 30.4487 22.8555 31.0781C22.418 31.7076 21.8288 32.2589 21.0877 32.7321C19.9091 33.4821 18.6725 33.8571 17.3779 33.8571C16.1636 33.8571 15.1725 33.5089 14.4046 32.8125C13.6011 32.0625 13.2484 31.1384 13.3466 30.0402C13.4091 29.3616 13.6591 28.7054 14.0966 28.0714C14.5341 27.4375 15.1189 26.8839 15.8511 26.4107C17.0296 25.6607 18.2707 25.2857 19.5743 25.2857C20.3154 25.2857 20.9895 25.4241 21.5966 25.7009C21.677 25.5848 21.7752 25.4866 21.8913 25.4062L23.5252 24.4286L21.8913 23.4509C21.7752 23.3705 21.677 23.2723 21.5966 23.1562C20.9895 23.433 20.3154 23.5714 19.5743 23.5714C18.2707 23.5714 17.0296 23.1964 15.8511 22.4464C15.1189 21.9732 14.5341 21.4196 14.0966 20.7857C13.6591 20.1518 13.4091 19.4955 13.3466 18.817C13.302 18.2902 13.3712 17.7857 13.5542 17.3036C13.7372 16.8214 14.0207 16.4062 14.4046 16.058C15.1636 15.3527 16.1546 15 17.3779 15C18.6725 15 19.9091 15.375 21.0877 16.125C21.8288 16.5893 22.418 17.1384 22.8555 17.7723C23.293 18.4062 23.543 19.067 23.6055 19.7545C23.6413 20.183 23.5966 20.6161 23.4716 21.0536C23.5073 21.0625 23.5609 21.0848 23.6323 21.1205L25.1055 22.0045L34.3466 16.8214C34.4716 16.75 34.61 16.7143 34.7618 16.7143C34.9046 16.7143 35.0341 16.7455 35.1502 16.808L36.8645 17.6652C37.1323 17.808 37.2886 18.0357 37.3332 18.3482C37.36 18.6696 37.2484 18.9196 36.9984 19.0982L30.2082 24.4286ZM21.0877 20.9464C21.4984 20.5714 21.5921 20.0893 21.3689 19.5C21.1457 18.9107 20.6725 18.3884 19.9493 17.933C19.1279 17.4062 18.2707 17.1429 17.3779 17.1429C16.7171 17.1429 16.2127 17.3036 15.8645 17.625C15.4538 18 15.36 18.4821 15.5832 19.0714C15.8064 19.6607 16.2796 20.183 17.0029 20.6384C17.8243 21.1652 18.6814 21.4286 19.5743 21.4286C20.235 21.4286 20.7395 21.2679 21.0877 20.9464ZM19.9493 30.9241C20.6725 30.4687 21.1457 29.9464 21.3689 29.3571C21.5921 28.7679 21.4984 28.2857 21.0877 27.9107C20.7395 27.5893 20.235 27.4286 19.5743 27.4286C18.6814 27.4286 17.8243 27.692 17.0029 28.2187C16.2796 28.6741 15.8064 29.1964 15.5832 29.7857C15.36 30.375 15.4538 30.8571 15.8645 31.2321C16.2127 31.5536 16.7171 31.7143 17.3779 31.7143C18.2707 31.7143 19.1279 31.4509 19.9493 30.9241ZM22.3332 22.7143L23.6189 23.4911V23.3437C23.6189 23.0223 23.7663 22.7723 24.0609 22.5937L24.2484 22.4866L23.1904 21.8571L22.8421 22.2054C22.8154 22.2321 22.7707 22.2812 22.7082 22.3527C22.6457 22.4241 22.5921 22.4777 22.5475 22.5134C22.5296 22.5312 22.5118 22.5469 22.4939 22.5603C22.4761 22.5737 22.4627 22.5848 22.4538 22.5937L22.3332 22.7143ZM25.3332 25.7143L26.6189 26.1429L36.4761 18.4286L34.7618 17.5714L24.4761 23.3437V24.8571L22.3332 26.1429L22.4538 26.25C22.4716 26.2679 22.5029 26.2946 22.5475 26.3304C22.5832 26.3661 22.6323 26.4196 22.6948 26.4911C22.7573 26.5625 22.8064 26.6161 22.8421 26.6518L23.1904 27L25.3332 25.7143ZM34.7618 31.2857L36.4761 30.4286L29.5118 24.9643L27.1413 26.8125C27.1234 26.8393 27.0654 26.8705 26.9671 26.9062L34.7618 31.2857Z" fill="#7C98DC"/>
</g>
<defs>
<clipPath id="clip0_102_376">
<rect width="24" height="18.8571" fill="white" transform="translate(13.3333 15)"/>
</clipPath>
</defs>
</svg>
