<svg width="49" height="49" viewBox="0 0 49 49" fill="none" xmlns="http://www.w3.org/2000/svg">
<rect x="1" y="1" width="47" height="47" rx="7" fill="white" stroke="#F1AB30" stroke-width="2"/>
<path d="M36.1987 21.0003H29.5227L27.1067 23.4163C26.8103 23.714 26.4578 23.95 26.0697 24.1107C25.6816 24.2713 25.2654 24.3535 24.8453 24.3523C23.9893 24.3523 23.1867 24.019 22.5813 23.415C22.2837 23.1187 22.0477 22.7665 21.8868 22.3786C21.7259 21.9908 21.6434 21.5749 21.644 21.155C21.644 21.103 21.6573 21.0523 21.6587 21.0003H13.8C13.5878 21.0003 13.3843 21.0846 13.2343 21.2346C13.0843 21.3847 13 21.5881 13 21.8003V25.0003H37V21.8003C37 21.6951 36.9793 21.591 36.939 21.4939C36.8987 21.3967 36.8396 21.3085 36.7652 21.2342C36.6908 21.1598 36.6024 21.1009 36.5052 21.0608C36.408 21.0207 36.3038 21.0001 36.1987 21.0003ZM26.024 22.3323L32.764 15.5923C32.8386 15.5182 32.8978 15.4301 32.9383 15.3331C32.9788 15.236 32.9997 15.132 33 15.0269C33.0002 14.9217 32.9797 14.8176 32.9397 14.7204C32.8997 14.6232 32.8409 14.5348 32.7667 14.4603L31.54 13.2336C31.3894 13.084 31.1857 13 30.9733 13C30.761 13 30.5573 13.084 30.4067 13.2336L23.6667 19.975C23.3541 20.2876 23.1784 20.7116 23.1784 21.1536C23.1784 21.5957 23.3541 22.0197 23.6667 22.3323C23.9793 22.6449 24.4032 22.8205 24.8453 22.8205C25.2874 22.8205 25.7114 22.6449 26.024 22.3323ZM16.764 34.695C16.8933 35.2296 17.4507 35.667 18 35.667H32C32.5493 35.667 33.1067 35.2296 33.236 34.695L35.2667 26.3336H14.7333L16.764 34.695Z" fill="#F1AB30"/>
</svg>
